# Blender v2.79 (sub 0) OBJ File: ''
# www.blender.org
mtllib fb_platform.mtl
o fb_platform
v -4.000000 0.999900 -6.928100
v -4.197700 0.499900 -7.270700
v -8.395500 0.499900 0.000000
v -8.000000 0.999900 0.000000
v -8.000000 0.000000 0.000000
v -4.000000 0.000000 -6.928100
v -4.197700 0.499900 7.270700
v -3.999900 0.999900 6.928200
v -3.999900 0.000000 6.928200
v -3.552300 0.000000 -6.069200
v -7.133000 0.000000 0.000000
v -7.133000 0.000000 0.000000
v -3.508600 0.000000 6.253200
v -6.884400 0.999900 0.000000
v -3.527000 0.999900 -6.133000
v -6.884400 0.999900 0.000000
v -3.382500 0.999900 5.968400
v 3.422500 0.000000 6.107500
v 4.000000 0.000000 6.928100
v -3.999900 0.000000 6.928200
v -3.508600 0.000000 6.253200
v 4.197700 0.499900 -7.270700
v 3.999900 0.000000 -6.928200
v 3.999900 0.999900 -6.928200
v -3.999900 0.999900 6.928200
v -4.197700 0.499900 7.270700
v 4.197700 0.499900 7.270700
v 4.000000 0.999900 6.928100
v 3.527400 1.000000 -6.118900
v -3.527000 0.999900 -6.133000
v 3.602600 0.000000 -6.194300
v -3.552300 0.000000 -6.069200
v -3.382500 0.999900 5.968400
v 3.509900 1.000000 6.060100
v 3.509900 1.000000 6.060100
v 7.999900 0.999900 0.000000
v 7.012600 0.999900 0.000000
v 7.012600 0.999900 0.000000
v 3.527400 1.000000 -6.118900
v 7.131000 0.000000 0.000000
v 7.999900 0.000000 0.000000
v 3.422500 0.000000 6.107500
v 7.131000 0.000000 0.000000
v 3.602600 0.000000 -6.194300
v 8.395500 0.499900 0.000000
v -7.133000 0.000000 0.000000
v 7.131000 0.000000 0.000000
v 3.422500 0.000000 6.107500
v -3.508600 0.000000 6.253200
v -3.552300 0.000000 -6.069200
v 3.602600 0.000000 -6.194300
v -3.527000 0.999900 -6.133000
v -6.884400 0.999900 0.000000
v 7.012600 0.999900 0.000000
v 3.527400 1.000000 -6.118900
v -3.382500 0.999900 5.968400
v 3.509900 1.000000 6.060100
vt 1.880200 1.173200
vt 1.923500 1.173100
vt 1.923500 -0.151000
vt 1.880100 -0.151000
vt 1.966800 -0.151000
vt 1.966800 1.173100
vt 1.923400 -1.475200
vt 1.880100 -1.475200
vt 1.966800 -1.475200
vt 1.881600 1.142500
vt 1.881600 -0.120200
vt 1.881600 -0.210700
vt 1.881600 -1.429200
vt 1.971500 -0.112500
vt 1.971600 1.102200
vt 1.971500 -0.224100
vt 1.971500 -1.389100
vt 1.881600 -0.258400
vt 1.966900 -0.151000
vt 1.966900 -1.475200
vt 1.881600 -1.406300
vt 1.923500 2.497400
vt 1.966900 2.497400
vt 1.880200 2.497400
vt 1.880200 -1.475200
vt 1.923500 -1.475200
vt 1.923500 -0.151000
vt 1.880200 -0.151000
vt 1.971600 2.435000
vt 1.971600 1.244600
vt 1.881600 2.443600
vt 1.881600 1.232600
vt 1.971600 -1.397700
vt 1.971600 -0.205800
vt 1.971600 -0.103400
vt 1.880200 1.173100
vt 1.971600 1.119300
vt 1.971600 1.242400
vt 1.971600 2.432800
vt 1.881600 1.096200
vt 1.966900 1.173100
vt 1.881600 -0.117200
vt 1.881600 1.237400
vt 1.881600 2.426200
vt 1.923500 1.173100
vt -1.233400 0.492500
vt 2.233400 0.492500
vt 1.332000 2.028700
vt -0.352500 2.065300
vt -0.363100 -1.033900
vt 1.375800 -1.065300
vt -0.356900 -1.049900
vt -1.172900 0.492500
vt 2.204600 0.492500
vt 1.357600 -1.046400
vt -0.321800 1.993700
vt 1.353300 2.016700
vn -0.2076 0.9097 -0.3596
vn -0.5000 -0.0000 -0.8660
vn -1.0000 -0.0000 0.0000
vn -0.4152 0.9097 -0.0000
vn -0.4152 -0.9097 0.0000
vn -0.2076 -0.9097 -0.3596
vn -0.4999 -0.0000 0.8661
vn -0.2076 0.9097 0.3596
vn -0.2076 -0.9097 0.3596
vn 0.0000 -1.0000 0.0000
vn 0.0000 1.0000 0.0000
vn 0.2076 -0.9097 0.3596
vn 0.5000 -0.0000 -0.8660
vn 0.2076 -0.9097 -0.3596
vn 0.2069 0.9097 -0.3600
vn 0.5000 -0.0000 0.8660
vn 0.2090 0.9097 0.3588
vn -0.0000 1.0000 -0.0001
vn -0.0000 1.0000 0.0001
vn 0.0001 1.0000 0.0001
vn 0.4152 0.9097 -0.0000
vn 0.0001 1.0000 -0.0001
vn 0.4152 -0.9097 0.0000
vn 1.0000 -0.0000 -0.0000
usemtl spongeball_track_pattern_blue
s 1
f 1/1/1 2/2/2 3/3/3
f 3/3/3 4/4/4 1/1/1
f 5/5/5 3/3/3 2/2/2
f 5/5/5 2/2/2 6/6/6
f 4/4/4 3/3/3 7/7/7
f 7/7/7 8/8/8 4/4/4
f 9/9/9 7/7/7 3/3/3
f 9/9/9 3/3/3 5/5/5
f 5/5/5 6/6/6 10/10/10
f 5/5/5 10/10/10 11/11/10
f 9/9/9 5/5/5 12/12/10
f 9/9/9 12/12/10 13/13/10
f 1/1/1 4/4/4 14/14/11
f 1/1/1 14/14/11 15/15/11
f 16/16/11 4/4/4 8/8/8
f 16/16/11 8/8/8 17/17/11
f 18/18/10 19/19/12 20/20/9
f 18/18/10 20/20/9 21/21/10
f 6/6/6 2/2/2 22/22/13
f 6/6/6 22/22/13 23/23/14
f 24/24/15 22/22/13 2/2/2
f 2/2/2 1/1/1 24/24/15
f 25/25/8 26/26/7 27/27/16
f 27/27/16 28/28/17 25/25/8
f 19/19/12 27/27/16 26/26/7
f 19/19/12 26/26/7 20/20/9
f 29/29/18 24/24/15 1/1/1
f 1/1/1 30/30/11 29/29/18
f 6/6/6 23/23/14 31/31/10
f 6/6/6 31/31/10 32/32/10
f 33/33/11 25/25/8 28/28/17
f 33/33/11 28/28/17 34/34/19
f 35/35/20 28/28/17 36/36/21
f 35/35/20 36/36/21 37/37/11
f 38/38/11 36/36/21 24/24/15
f 39/39/22 38/38/11 24/24/15
f 40/40/10 41/41/23 19/19/12
f 40/40/10 19/19/12 42/42/10
f 23/23/14 41/41/23 43/43/10
f 23/23/14 43/43/10 44/44/10
f 36/36/21 45/45/24 22/22/13
f 22/22/13 24/24/15 36/36/21
f 23/23/14 22/22/13 45/45/24
f 23/23/14 45/45/24 41/41/23
f 28/28/17 27/27/16 45/45/24
f 45/45/24 36/36/21 28/28/17
f 41/41/23 45/45/24 27/27/16
f 41/41/23 27/27/16 19/19/12
usemtl b4_wood_roof_line
f 46/46/10 47/47/10 48/48/10
f 46/46/10 48/48/10 49/49/10
f 47/47/10 46/46/10 50/50/10
f 47/47/10 50/50/10 51/51/10
f 52/52/11 53/53/11 54/54/11
f 52/52/11 54/54/11 55/55/11
f 54/54/11 53/53/11 56/56/11
f 54/54/11 56/56/11 57/57/11
