# Created by MKDS Course Modifier
mtllib rotatingplatform.mtl
g polygon0
usemtl obj_tubu
v -5.9375 -112.5 -9.375
v 6.5625 -112.5 -9.375
v -5.9375 -125 -3.125
v 6.5625 -125 -3.125
vn 0 -0.4472656 -0.8945313
vn 0 -0.4472656 -0.8945313
vn 0 -0.4472656 -0.8945313
vn 0 -0.4472656 -0.8945313
vt 0.984375 2.03125
vt 3.035156 2.03125
vt 0.984375 -0.03125
vt 3.035156 -0.03125
f 1/1/1 2/2/2 3/3/3
f 2/2/2 4/4/4 3/3/3
v 62.8125 -112.5 71.875
v 62.8125 -112.5 -3.125
v -62.1875 -112.5 71.875
v -62.1875 -112.5 -3.125
vn 0 0.9980469 0
vn 0 0.9980469 0
vn 0 0.9980469 0
vn 0 0.9980469 0
vt 0 -1
vt 0 5
vt 10 -1
vt 10 5
f 5/5/5 6/6/6 7/7/7
f 6/6/6 8/8/8 7/7/7
v 50.3125 -125 71.875
v -49.6875 -125 -3.125
v 50.3125 -125 -3.125
v 50.3125 -125 71.875
v -49.6875 -125 71.875
v -49.6875 -125 -3.125
vn 0 -1 0
vn 0 -1 0
vn 0 -1 0
vn 0 -1 0
vn 0 -1 0
vn 0 -1 0
vt 0.5 -1
vt 9.5 5
vt 0.5 5
vt -4.533203 -0.2519531
vt -4.533203 9.496094
vt 1.849609 9.496094
f 9/9/9 10/10/10 11/11/11
f 12/12/12 13/13/13 14/14/14
g polygon1
usemtl obj_brock1
v -5.9375 -112.5 -9.375
v -5.9375 -12.5 -9.375
v 6.5625 -112.5 -9.375
v 6.5625 -12.5 -9.375
vn 0 0 -1
vn 0 0 -1
vn 0 0 -1
vn 0 0 -1
vt 1.318359 -0.2011719
vt 1.318359 -0.2011719
vt 1.818359 -1.398438
vt 1.818359 -1.398438
f 15/15/15 16/16/16 17/17/17
f 16/16/16 18/18/18 17/17/17
v -5.9375 -12.5 -9.375
v -5.9375 -112.5 -9.375
v -5.9375 -12.5 -3.125
v -5.9375 -125 -3.125
vn -1 0 0
vn -1 0 0
vn -1 0 0
vn -1 0 0
vt 1.318359 -0.2011719
vt 1.318359 -0.2011719
vt 1.568359 0.3984375
vt 1.568359 0.3984375
f 19/19/19 20/20/20 21/21/21
f 20/20/20 22/22/22 21/21/21
v 6.5625 -112.5 -9.375
v 6.5625 -12.5 -9.375
v 6.5625 -125 -3.125
v 6.5625 -12.5 -3.125
vn 0.9980469 0 0
vn 0.9980469 0 0
vn 0.9980469 0 0
vn 0.9980469 0 0
vt 1.818359 -1.398438
vt 1.818359 -1.398438
vt 2.068359 -0.7988281
vt 2.068359 -0.7988281
f 23/23/23 24/24/24 25/25/25
f 24/24/24 26/26/26 25/25/25
v -5.9375 -12.5 -3.125
v -5.9375 -125 -3.125
v 6.5625 -12.5 -3.125
v 6.5625 -125 -3.125
vn 0 0 0.9980469
vn 0 0 0.9980469
vn 0 0 0.9980469
vn 0 0 0.9980469
vt 1.568359 0.3984375
vt 1.568359 0.3984375
vt 2.068359 -0.7988281
vt 2.068359 -0.7988281
f 27/27/27 28/28/28 29/29/29
f 28/28/28 30/30/30 29/29/29
v 50.3125 -125 71.875
v 50.3125 -125 -3.125
v 62.8125 -112.5 71.875
v 62.8125 -112.5 -3.125
vn 0.7070313 -0.7070313 0
vn 0.7070313 -0.7070313 0
vn 0.7070313 -0.7070313 0
vn 0.7070313 -0.7070313 0
vt 0 -0.6679688
vt 5 -0.6679688
vt 0 -0.05078125
vt 5 -0.05078125
f 31/31/31 32/32/32 33/33/33
f 32/32/32 34/34/34 33/33/33
v -62.1875 -112.5 -3.125
v 62.8125 -112.5 -3.125
v -49.6875 -125 -3.125
v 50.3125 -125 -3.125
vn 0 0 -1
vn 0 0 -1
vn 0 0 -1
vn 0 0 -1
vt -3.050781 -0.0625
vt 4.238281 -0.0625
vt -2.302734 -0.65625
vt 3.490234 -0.65625
f 35/35/35 36/36/36 37/37/37
f 36/36/36 38/38/38 37/37/37
v 62.8125 -112.5 71.875
v -62.1875 -112.5 71.875
v 50.3125 -125 71.875
v -49.6875 -125 71.875
vn 0 0 0.9980469
vn 0 0 0.9980469
vn 0 0 0.9980469
vn 0 0 0.9980469
vt 4.238281 -0.0625
vt -3.240234 -0.0625
vt 3.490234 -0.65625
vt -2.492188 -0.65625
f 39/39/39 40/40/40 41/41/41
f 40/40/40 42/42/42 41/41/41
v -49.6875 -125 -3.125
v -49.6875 -125 71.875
v -62.1875 -112.5 -3.125
v -62.1875 -112.5 71.875
vn -0.7070313 -0.7070313 0
vn -0.7070313 -0.7070313 0
vn -0.7070313 -0.7070313 0
vn -0.7070313 -0.7070313 0
vt 5 -0.6679688
vt 0 -0.6679688
vt 5 -0.05078125
vt 0 -0.05078125
f 43/43/43 44/44/44 45/45/45
f 44/44/44 46/46/46 45/45/45
g polygon2
usemtl obj_teppan1
v -14.0625 0 0
v -5.9375 -12.5 0
v -5.9375 12.5 0
v 6.5625 -12.5 0
v 14.6875 0 0
vn 0 0 0.9980469
vn 0 0 0.9980469
vn 0 0 0.9980469
vn 0 0 0.9980469
vn 0 0 0.9980469
vt -0.1386719 -0.5
vt 0.2226563 -1.138672
vt 0.2226563 0.1386719
vt 0.7773438 -1.138672
vt 1.138672 -0.5
f 47/47/47 48/48/48 49/49/49
f 48/48/48 50/50/50 49/49/49
f 49/49/49 50/50/50 51/51/51
v -14.0625 0 -12.5
v -5.9375 12.5 -12.5
v -5.9375 -12.5 -12.5
v 6.5625 12.5 -12.5
v 14.6875 0 -12.5
vn 0 0 -1
vn 0 0 -1
vn 0 0 -1
vn 0 0 -1
vn 0 0 -1
vt -0.1386719 -0.5
vt 0.2226563 0.1386719
vt 0.2226563 -1.138672
vt 0.7773438 0.1386719
vt 1.138672 -0.5
f 52/52/52 53/53/53 54/54/54
f 53/53/53 55/55/55 54/54/54
f 54/54/54 55/55/55 56/56/56
v 6.5625 -12.5 0
v -5.9375 -12.5 0
v 6.5625 -12.5 -12.5
v -5.9375 -12.5 -12.5
vn 0 -1 0
vn 0 -1 0
vn 0 -1 0
vn 0 -1 0
vt 1 -1
vt 0 -1
vt 1 0
vt 0 0
f 57/57/57 58/58/58 59/59/59
f 58/58/58 60/60/60 59/59/59
v 14.6875 0 0
v 6.5625 -12.5 0
v 14.6875 0 -12.5
v 6.5625 -12.5 -12.5
vn 0.8378906 -0.5449219 0
vn 0.8378906 -0.5449219 0
vn 0.8378906 -0.5449219 0
vn 0.8378906 -0.5449219 0
vt 0.03125 -0.984375
vt 0.03125 -1.947266
vt 1.03125 -0.984375
vt 1.03125 -1.947266
f 61/61/61 62/62/62 63/63/63
f 62/62/62 64/64/64 63/63/63
v 6.5625 12.5 0
v 14.6875 0 0
v 6.5625 12.5 -12.5
v 14.6875 0 -12.5
vn 0.8378906 0.5449219 0
vn 0.8378906 0.5449219 0
vn 0.8378906 0.5449219 0
vn 0.8378906 0.5449219 0
vt 0.03125 -0.01953125
vt 0.03125 -0.984375
vt 1.03125 -0.01953125
vt 1.03125 -0.984375
f 65/65/65 66/66/66 67/67/67
f 66/66/66 68/68/68 67/67/67
v -5.9375 12.5 0
v 6.5625 12.5 0
v -5.9375 12.5 -12.5
v 6.5625 12.5 -12.5
vn 0 0.9980469 0
vn 0 0.9980469 0
vn 0 0.9980469 0
vn 0 0.9980469 0
vt 0 -1
vt 1 -1
vt 0 0
vt 1 0
f 69/69/69 70/70/70 71/71/71
f 70/70/70 72/72/72 71/71/71
v -14.0625 0 0
v -5.9375 12.5 0
v -14.0625 0 -12.5
v -5.9375 12.5 -12.5
vn -0.8378906 0.5449219 0
vn -0.8378906 0.5449219 0
vn -0.8378906 0.5449219 0
vn -0.8378906 0.5449219 0
vt 0.03125 -0.984375
vt 0.03125 -0.01953125
vt 1.03125 -0.984375
vt 1.03125 -0.01953125
f 73/73/73 74/74/74 75/75/75
f 74/74/74 76/76/76 75/75/75
v -5.9375 -12.5 0
v -14.0625 0 0
v -5.9375 -12.5 -12.5
v -14.0625 0 -12.5
vn -0.8378906 -0.5449219 0
vn -0.8378906 -0.5449219 0
vn -0.8378906 -0.5449219 0
vn -0.8378906 -0.5449219 0
vt 0.03125 -1.947266
vt 0.03125 -0.984375
vt 1.03125 -1.947266
vt 1.03125 -0.984375
f 77/77/77 78/78/78 79/79/79
f 78/78/78 80/80/80 79/79/79
v -5.9375 12.5 0
v 14.6875 0 0
v 6.5625 12.5 0
v -5.9375 -12.5 -12.5
v 14.6875 0 -12.5
v 6.5625 -12.5 -12.5
vn 0 0 0.9980469
vn 0 0 0.9980469
vn 0 0 0.9980469
vn 0 0 -1
vn 0 0 -1
vn 0 0 -1
vt 0.2226563 0.1386719
vt 1.138672 -0.5
vt 0.7773438 0.1386719
vt 0.2226563 -1.138672
vt 1.138672 -0.5
vt 0.7773438 -1.138672
f 81/81/81 82/82/82 83/83/83
f 84/84/84 85/85/85 86/86/86
