# Blender v2.77 (sub 0) OBJ File: ''
# www.blender.org
mtllib Galdon's Stomach Acid.mtl
o MODELS_bin_004:poly000
v 0.005031 0.002695 0.026538
v -0.016101 0.002461 0.018882
v 0.003910 0.010430 0.001261
v -0.022530 0.004805 -0.009037
v 0.001882 0.003945 -0.029321
v -0.015267 0.002656 -0.026704
v -0.020970 -0.003711 -0.034555
v -0.033389 -0.003203 -0.014193
v -0.035420 -0.005078 0.007486
v -0.024991 -0.011094 -0.014076
v -0.028936 -0.011016 0.003502
v -0.018233 -0.013945 0.013697
v -0.024148 -0.006953 0.024468
v -0.011648 -0.007422 0.035249
v -0.007937 0.000742 0.028609
v 0.023235 -0.006055 0.029702
v 0.017621 -0.011992 0.020167
v 0.002805 -0.013789 0.020952
v 0.025041 -0.012461 0.006586
v 0.000082 -0.017422 -0.007724
v 0.024104 -0.011289 -0.021188
v -0.000267 -0.011992 -0.034634
v 0.016530 -0.010273 -0.034985
v 0.020905 -0.004062 -0.040141
v 0.034065 -0.003359 -0.024117
v 0.041682 -0.003945 -0.004781
v 0.026096 0.004844 -0.016110
v 0.034494 0.002813 -0.002906
v 0.027424 0.003711 0.011781
v 0.035627 -0.004961 0.014320
v 0.004563 -0.006563 0.034663
v 0.019914 0.001094 0.025093
v -0.009344 -0.013555 0.023648
v -0.027178 0.001836 0.006861
v -0.017962 -0.009492 -0.031040
v 0.000671 -0.004609 -0.042485
v 0.017194 0.002813 -0.030571
v 0.032424 -0.010273 -0.006344
vt 0.3008 0.7842
vt 0.4834 0.5586
vt 0.1797 0.5928
vt 0.3037 0.2744
vt 0.6982 0.2754
vt 0.5137 0.1729
vt 0.5215 0.0674
vt 0.1924 0.0674
vt 0.0898 0.3320
vt 0.3252 0.2002
vt 0.1738 0.3418
vt 0.2012 0.5176
vt -0.0127 0.5967
vt 0.0879 0.7559
vt 0.1768 0.7168
vt 0.4463 0.9570
vt 0.3232 0.7100
vt 0.4648 0.8291
vt 0.6318 0.7588
vt 0.5195 0.4336
vt 0.8232 0.5010
vt 0.7197 0.2002
vt 0.8555 0.3311
vt 0.9365 0.3184
vt 1.0234 0.5684
vt 0.8633 0.7832
vt 0.8018 0.5752
vt 0.7822 0.7461
vt 0.6104 0.8340
vt 0.7031 0.9980
vt 0.1885 0.9160
vt 0.4502 0.8887
vt 0.2002 0.6631
vt 0.1650 0.3848
vt 0.5215 0.1152
vt 0.8496 0.0684
vt 0.8301 0.3750
vt 0.7891 0.7012
vn -0.1175 0.9481 0.2953
vn -0.2578 0.9561 0.1396
vn -0.1298 0.9717 -0.1974
vn -0.0982 0.9822 -0.1598
vn -0.1464 0.8177 -0.5567
vn -0.4940 0.8152 -0.3022
vn -0.4669 0.8299 -0.3055
vn -0.5975 0.8017 0.0134
vn -0.6783 -0.7239 -0.1262
vn -0.7179 -0.6779 -0.1581
vn -0.2230 -0.9737 -0.0457
vn -0.5235 -0.7884 0.3230
vn -0.5138 -0.8205 0.2505
vn -0.5389 0.7200 0.4372
vn -0.4465 0.7070 0.5484
vn -0.5052 0.6710 0.5426
vn 0.0312 0.6221 0.7823
vn -0.1037 0.9609 0.2568
vn 0.1308 -0.8743 0.4674
vn 0.1251 -0.9868 0.1024
vn 0.1314 -0.9849 0.1123
vn 0.2214 -0.9740 -0.0486
vn 0.1370 -0.9707 -0.1976
vn 0.0984 -0.9871 -0.1266
vn 0.0518 -0.6592 -0.7502
vn 0.5836 -0.7211 -0.3734
vn 0.5048 -0.7748 -0.3806
vn 0.5590 -0.7924 -0.2442
vn 0.5913 0.7788 -0.2093
vn 0.6178 0.7348 -0.2800
vn 0.1889 0.9815 0.0309
vn 0.6943 0.6569 0.2940
vn 0.6663 0.7030 0.2486
vn 0.5151 -0.8489 0.1181
vn 0.4154 -0.8677 0.2729
vn 0.4428 -0.8545 0.2714
vn 0.0636 -0.8862 0.4589
vn -0.0078 0.6598 0.7514
vn 0.1801 0.6437 0.7438
vn 0.1404 0.5818 0.8011
vn 0.6372 0.6044 0.4783
vn 0.1283 0.9569 0.2605
vn 0.1440 0.9480 0.2837
vn 0.0895 -0.8731 0.4793
vn -0.3795 -0.8470 0.3723
vn -0.3494 -0.8619 0.3676
vn -0.0372 -0.9909 0.1291
vn -0.2343 -0.9712 -0.0427
vn -0.1914 0.9734 0.1258
vn -0.6440 0.7636 -0.0457
vn -0.1943 -0.9621 -0.1916
vn -0.1703 -0.9719 -0.1623
vn -0.7230 -0.5923 -0.3555
vn -0.2399 -0.5925 -0.7690
vn -0.2760 -0.6836 -0.6757
vn 0.0980 -0.7308 -0.6755
vn 0.0408 0.8361 -0.5471
vn 0.0129 0.8145 -0.5801
vn 0.0585 0.9830 -0.1741
vn 0.4587 0.7964 -0.3942
vn 0.4366 0.8088 -0.3940
vn 0.0794 0.9741 -0.2118
vn 0.2636 0.9643 0.0266
vn 0.5371 -0.8269 0.1668
vn 0.2053 -0.9775 -0.0482
vn 0.1428 -0.8830 0.4471
vn -0.0088 -0.9989 0.0471
vn -0.5469 0.6943 0.4679
vn -0.6335 -0.6798 -0.3695
vn -0.1587 0.8345 -0.5277
vn 0.5546 0.6693 0.4944
vn 0.5740 -0.7734 -0.2689
usemtl None
s 1
f 1/1/1 3/2/1 2/3/1
f 2/3/2 3/2/2 4/4/2
f 3/2/3 5/5/3 4/4/3
f 4/4/4 5/5/4 6/6/4
f 5/5/5 7/7/5 6/6/5
f 6/6/6 7/7/6 4/4/6
f 7/7/7 8/8/7 4/4/7
f 4/4/8 8/8/8 9/9/8
f 8/8/9 10/10/9 9/9/9
f 9/9/10 10/10/10 11/11/10
f 10/10/11 12/12/11 11/11/11
f 11/11/12 12/12/12 9/9/12
f 12/12/13 13/13/13 9/9/13
f 9/9/14 13/13/14 2/3/14
f 13/13/15 14/14/15 2/3/15
f 2/3/16 14/14/16 15/15/16
f 14/14/17 1/1/17 15/15/17
f 15/15/18 1/1/18 2/3/18
f 16/16/19 18/17/19 17/18/19
f 17/18/20 18/17/20 19/19/20
f 18/17/21 20/20/21 19/19/21
f 19/19/22 20/20/22 21/21/22
f 20/20/23 22/22/23 21/21/23
f 21/21/24 22/22/24 23/23/24
f 22/22/25 24/24/25 23/23/25
f 23/23/26 24/24/26 21/21/26
f 24/24/27 25/25/27 21/21/27
f 21/21/28 25/25/28 26/26/28
f 25/25/29 27/27/29 26/26/29
f 26/26/30 27/27/30 28/28/30
f 27/27/31 29/29/31 28/28/31
f 28/28/32 29/29/32 26/26/32
f 29/29/33 30/30/33 26/26/33
f 26/26/34 30/30/34 19/19/34
f 30/30/35 16/16/35 19/19/35
f 19/19/36 16/16/36 17/18/36
f 18/17/37 31/31/37 14/14/37
f 14/14/38 31/31/38 1/1/38
f 31/31/39 16/16/39 1/1/39
f 1/1/40 16/16/40 32/32/40
f 16/16/41 29/29/41 32/32/41
f 32/32/42 29/29/42 1/1/42
f 29/29/43 3/2/43 1/1/43
f 18/17/44 14/14/44 33/33/44
f 33/33/45 14/14/45 12/12/45
f 14/14/46 13/13/46 12/12/46
f 18/17/47 12/12/47 20/20/47
f 20/20/48 12/12/48 10/10/48
f 2/3/49 4/4/49 34/34/49
f 34/34/50 4/4/50 9/9/50
f 20/20/51 10/10/51 22/22/51
f 22/22/52 10/10/52 35/35/52
f 10/10/53 7/7/53 35/35/53
f 35/35/54 7/7/54 22/22/54
f 7/7/55 36/36/55 22/22/55
f 22/22/56 36/36/56 24/24/56
f 36/36/57 5/5/57 24/24/57
f 24/24/58 5/5/58 37/37/58
f 5/5/59 27/27/59 37/37/59
f 37/37/60 27/27/60 24/24/60
f 27/27/61 25/25/61 24/24/61
f 5/5/62 3/2/62 27/27/62
f 27/27/63 3/2/63 29/29/63
f 26/26/64 19/19/64 38/38/64
f 38/38/65 19/19/65 21/21/65
f 18/17/66 16/16/66 31/31/66
f 33/33/67 12/12/67 18/17/67
f 34/34/68 9/9/68 2/3/68
f 7/7/69 10/10/69 8/8/69
f 7/7/70 5/5/70 36/36/70
f 29/29/71 16/16/71 30/30/71
f 38/38/72 21/21/72 26/26/72
