# Wavefront OBJ file
# Exported by Misfit Model 3D 1.3.8
# Wed Jan 02 07:44:40 2019

mtllib chemicalbarrel.mtl

# 18 Vertices
v 1.891079 0.0 2.625263
v 1.891079 0.0 -2.625263
v 1.33488 -1.33488 -2.625263
v 1.33488 -1.33488 2.625263
v 0.0 -1.891079 -2.625263
v 0.0 -1.891079 2.625263
v -1.33488 -1.33488 -2.625263
v -1.33488 -1.33488 2.625263
v -1.891079 0.0 -2.625263
v -1.891079 0.0 2.625263
v 0.0 0.0 -2.625263
v -1.33488 1.33488 2.625263
v 0.0 1.891079 -2.625263
v 0.0 1.891079 2.625263
v 1.33488 1.33488 -2.625263
v 0.0 0.0 2.625263
v 1.33488 1.33488 2.625263
v -1.33488 1.33488 -2.625263

# 96 Texture Coordinates
vt 0.152941 0.015686
vt 0.152941 1.0
vt 0.007843 1.0
vt 0.152941 0.015686
vt 0.007843 1.0
vt 0.007843 0.015686
vt 0.505882 0.015686
vt 0.505882 1.0
vt 0.152941 1.0
vt 0.505882 0.015686
vt 0.152941 1.0
vt 0.152941 0.015686
vt 0.854902 0.015686
vt 0.854902 1.0
vt 0.505882 1.0
vt 0.854902 0.015686
vt 0.505882 1.0
vt 0.505882 0.015686
vt 1.0 0.015686
vt 1.0 1.0
vt 0.854902 1.0
vt 1.0 0.015686
vt 0.854902 1.0
vt 0.854902 0.015686
vt 0.854902 0.015686
vt 0.854902 1.0
vt 1.0 1.0
vt 0.854902 0.015686
vt 1.0 1.0
vt 1.0 0.015686
vt 0.505882 0.015686
vt 0.505882 1.0
vt 0.854902 1.0
vt 0.505882 0.015686
vt 0.854902 1.0
vt 0.854902 0.015686
vt 0.152941 0.015686
vt 0.152941 1.0
vt 0.505882 1.0
vt 0.152941 0.015686
vt 0.505882 1.0
vt 0.505882 0.015686
vt 0.007843 0.015686
vt 0.007843 1.0
vt 0.152941 1.0
vt 0.007843 0.015686
vt 0.152941 1.0
vt 0.152941 0.015686
vt 0.007843 1.0
vt 0.152941 1.0
vt 0.505882 1.0
vt 0.152941 1.0
vt 0.505882 1.0
vt 0.505882 1.0
vt 0.505882 1.0
vt 0.854902 1.0
vt 0.505882 1.0
vt 0.854902 1.0
vt 1.0 1.0
vt 0.505882 1.0
vt 0.505882 0.015686
vt 0.152941 0.015686
vt 0.007843 0.015686
vt 0.505882 0.015686
vt 0.505882 0.015686
vt 0.152941 0.015686
vt 0.505882 0.015686
vt 0.854902 0.015686
vt 0.505882 0.015686
vt 0.505882 0.015686
vt 1.0 0.015686
vt 0.854902 0.015686
vt 0.505882 0.015686
vt 0.505882 0.015686
vt 0.854902 0.015686
vt 0.505882 0.015686
vt 0.152941 0.015686
vt 0.505882 0.015686
vt 0.505882 0.015686
vt 0.854902 0.015686
vt 1.0 0.015686
vt 0.505882 0.015686
vt 0.007843 0.015686
vt 0.152941 0.015686
vt 1.0 1.0
vt 0.854902 1.0
vt 0.505882 1.0
vt 0.854902 1.0
vt 0.505882 1.0
vt 0.505882 1.0
vt 0.505882 1.0
vt 0.152941 1.0
vt 0.505882 1.0
vt 0.152941 1.0
vt 0.007843 1.0
vt 0.505882 1.0

# 96 Vertex Normals
vn 0.796691 -0.604386 0.0
vn 0.604387 -0.796691 0.0
vn 0.990492 -0.137568 0.0
vn 0.796691 -0.604386 0.0
vn 0.990492 -0.137568 0.0
vn 0.990492 0.137568 -0.0
vn 0.137568 -0.990492 0.0
vn -0.137568 -0.990492 -0.0
vn 0.604387 -0.796691 0.0
vn 0.137568 -0.990492 0.0
vn 0.604387 -0.796691 0.0
vn 0.796691 -0.604386 0.0
vn -0.604386 -0.796691 -0.0
vn -0.796691 -0.604386 -0.0
vn -0.137568 -0.990492 -0.0
vn -0.604386 -0.796691 -0.0
vn -0.137568 -0.990492 -0.0
vn 0.137568 -0.990492 0.0
vn -0.990492 -0.137568 -0.0
vn -0.990492 0.137568 0.0
vn -0.796691 -0.604386 -0.0
vn -0.990492 -0.137568 -0.0
vn -0.796691 -0.604386 -0.0
vn -0.604386 -0.796691 -0.0
vn -0.796691 0.604386 0.0
vn -0.604387 0.796691 0.0
vn -0.990492 0.137568 0.0
vn -0.796691 0.604386 0.0
vn -0.990492 0.137568 0.0
vn -0.990492 -0.137568 -0.0
vn -0.137568 0.990492 0.0
vn 0.137568 0.990492 -0.0
vn -0.604387 0.796691 0.0
vn -0.137568 0.990492 0.0
vn -0.604387 0.796691 0.0
vn -0.796691 0.604386 0.0
vn 0.604386 0.796691 -0.0
vn 0.796691 0.604386 -0.0
vn 0.137568 0.990492 -0.0
vn 0.604386 0.796691 -0.0
vn 0.137568 0.990492 -0.0
vn -0.137568 0.990492 0.0
vn 0.990492 0.137568 -0.0
vn 0.990492 -0.137568 0.0
vn 0.796691 0.604386 -0.0
vn 0.990492 0.137568 -0.0
vn 0.796691 0.604386 -0.0
vn 0.604386 0.796691 -0.0
vn 0.0 0.0 -1.0
vn 0.0 0.0 -1.0
vn 0.0 0.0 -1.0
vn 0.0 0.0 -1.0
vn 0.0 0.0 -1.0
vn 0.0 0.0 -1.0
vn 0.0 0.0 -1.0
vn 0.0 0.0 -1.0
vn 0.0 0.0 -1.0
vn 0.0 0.0 -1.0
vn 0.0 0.0 -1.0
vn 0.0 0.0 -1.0
vn 0.0 0.0 1.0
vn 0.0 0.0 1.0
vn 0.0 0.0 1.0
vn 0.0 0.0 1.0
vn 0.0 -0.0 1.0
vn 0.0 0.0 1.0
vn 0.0 0.0 1.0
vn 0.0 -0.0 1.0
vn 0.0 -0.0 1.0
vn 0.0 0.0 1.0
vn 0.0 -0.0 1.0
vn 0.0 -0.0 1.0
vn 0.0 0.0 1.0
vn 0.0 0.0 1.0
vn 0.0 -0.0 1.0
vn 0.0 0.0 1.0
vn 0.0 0.0 1.0
vn 0.0 0.0 1.0
vn 0.0 0.0 1.0
vn 0.0 -0.0 1.0
vn 0.0 -0.0 1.0
vn 0.0 0.0 1.0
vn 0.0 0.0 1.0
vn 0.0 0.0 1.0
vn 0.0 0.0 -1.0
vn 0.0 -0.0 -1.0
vn 0.0 0.0 -1.0
vn 0.0 -0.0 -1.0
vn 0.0 -0.0 -1.0
vn 0.0 0.0 -1.0
vn 0.0 -0.0 -1.0
vn 0.0 -0.0 -1.0
vn 0.0 0.0 -1.0
vn 0.0 -0.0 -1.0
vn 0.0 0.0 -1.0
vn 0.0 0.0 -1.0

# , 32 grouped triangles

usemtl tex16
o 
g 

f 4/1/1 3/2/2 2/3/3
f 4/4/4 2/5/5 1/6/6
f 6/7/7 5/8/8 3/9/9
f 6/10/10 3/11/11 4/12/12
f 8/13/13 7/14/14 5/15/15
f 8/16/16 5/17/17 6/18/18
f 10/19/19 9/20/20 7/21/21
f 10/22/22 7/23/23 8/24/24
f 12/25/25 18/26/26 9/27/27
f 12/28/28 9/29/29 10/30/30
f 14/31/31 13/32/32 18/33/33
f 14/34/34 18/35/35 12/36/36
f 17/37/37 15/38/38 13/39/39
f 17/40/40 13/41/41 14/42/42
f 1/43/43 2/44/44 15/45/45
f 1/46/46 15/47/47 17/48/48
f 2/49/49 3/50/50 11/51/51
f 3/52/52 5/53/53 11/54/54
f 5/55/55 7/56/56 11/57/57
f 7/58/58 9/59/59 11/60/60
f 16/61/61 4/62/62 1/63/63
f 16/64/64 6/65/65 4/66/66
f 16/67/67 8/68/68 6/69/69
f 16/70/70 10/71/71 8/72/72
f 16/73/73 14/74/74 12/75/75
f 16/76/76 17/77/77 14/78/78
f 16/79/79 12/80/80 10/81/81
f 16/82/82 1/83/83 17/84/84
f 9/85/85 18/86/86 11/87/87
f 18/88/88 13/89/89 11/90/90
f 13/91/91 15/92/92 11/93/93
f 15/94/94 2/95/95 11/96/96
